<?xml version="1.0" standalone="no"?>
<!DOCTYPE svg PUBLIC "-//W3C//DTD SVG 20010904//EN"
 "http://www.w3.org/TR/2001/REC-SVG-20010904/DTD/svg10.dtd">
<svg version="1.0" xmlns="http://www.w3.org/2000/svg"
 width="1667.000000pt" height="1667.000000pt" viewBox="0 0 1667.000000 1667.000000"
 preserveAspectRatio="xMidYMid meet">

<g transform="translate(0.000000,1667.000000) scale(0.100000,-0.100000)"
fill="#000000" stroke="none">
<path d="M5544 13451 c-12 -5 -31 -22 -44 -38 -18 -23 -21 -37 -17 -76 6 -70
40 -102 108 -102 45 0 54 4 80 33 62 69 24 178 -66 187 -22 3 -50 1 -61 -4z"/>
<path d="M6960 13437 c-14 -7 -33 -28 -42 -47 -16 -32 -18 -78 -18 -512 0
-417 2 -483 16 -518 37 -93 167 -94 195 -1 l12 39 35 -35 c73 -74 185 -99 300
-68 58 16 75 26 128 79 45 45 67 77 83 120 68 181 43 406 -59 535 -100 127
-313 158 -436 65 l-44 -34 0 125 c0 165 -12 221 -53 246 -37 22 -81 24 -117 6z
m410 -496 c19 -10 48 -39 65 -66 26 -41 30 -58 33 -139 5 -105 -8 -162 -44
-206 -75 -89 -207 -78 -264 21 -23 41 -25 54 -25 170 0 121 1 127 28 168 46
69 134 91 207 52z"/>
<path d="M6220 13140 c-101 -18 -213 -81 -280 -159 -146 -168 -156 -422 -25
-600 36 -49 101 -111 116 -111 2 0 5 104 6 231 3 258 9 284 75 351 48 48 102
71 176 76 107 7 204 -47 255 -142 21 -38 22 -57 25 -278 2 -131 7 -238 11
-238 15 0 129 126 149 166 77 150 70 349 -17 486 -103 163 -301 251 -491 218z"/>
<path d="M5527 13120 c-15 -12 -31 -38 -37 -58 -6 -22 -10 -186 -10 -414 0
-414 2 -402 -62 -415 -43 -9 -71 -50 -65 -96 3 -21 13 -47 23 -58 51 -56 216
-48 281 13 49 46 53 89 53 532 0 252 -4 425 -10 448 -6 21 -21 44 -33 53 -32
22 -109 19 -140 -5z"/>
<path d="M6260 12818 c-46 -13 -98 -63 -110 -108 -6 -21 -10 -266 -10 -616 l0
-581 -197 40 c-133 28 -207 38 -227 33 -15 -4 -53 -30 -83 -58 l-54 -52 278
-278 c152 -152 289 -282 303 -288 17 -7 164 -10 442 -8 l417 3 34 33 c21 20
40 51 46 75 6 23 29 174 52 334 l41 293 -23 47 -24 48 -283 143 c-269 135
-286 142 -342 142 l-60 0 0 349 c0 345 0 348 -23 381 -39 60 -111 87 -177 68z"/>
<path d="M0 4170 l0 -4170 8335 0 8335 0 0 4170 0 4170 -8335 0 -8335 0 0
-4170z m5661 1129 c38 -27 55 -84 39 -133 -29 -88 -147 -103 -207 -26 -19 23
-16 111 5 136 39 48 113 59 163 23z m4317 5 c31 -21 52 -66 52 -110 0 -28 -8
-44 -34 -70 -29 -29 -41 -34 -81 -34 -40 0 -52 5 -81 34 -29 29 -34 41 -34 81
0 40 5 52 34 81 28 28 41 34 78 34 24 0 54 -7 66 -16z m-2899 -10 c41 -29 51
-72 51 -223 l0 -140 57 35 c68 41 102 48 196 42 200 -13 327 -184 327 -438 0
-91 -15 -163 -49 -235 -36 -79 -77 -124 -143 -161 -49 -27 -61 -29 -153 -29
-111 0 -136 9 -205 71 l-38 35 -7 -31 c-4 -16 -18 -39 -32 -50 -31 -24 -99
-27 -131 -4 -52 36 -52 35 -52 569 0 517 0 522 44 557 27 23 104 23 135 2z
m1308 -315 c115 -58 146 -138 79 -205 -28 -28 -41 -34 -77 -34 -37 0 -47 5
-83 45 -48 52 -116 74 -181 59 -50 -12 -82 -52 -66 -83 16 -29 48 -44 176 -81
241 -70 302 -131 293 -294 -3 -64 -8 -81 -34 -118 -37 -53 -118 -103 -193
-119 -74 -15 -252 -7 -316 16 -70 24 -141 71 -165 110 -48 77 -6 175 75 175
47 0 85 -21 119 -64 32 -42 65 -61 122 -71 87 -14 164 32 150 89 -9 35 -43 52
-168 86 -149 41 -224 82 -263 145 -26 42 -29 57 -29 119 1 108 44 176 141 225
67 34 110 40 235 38 111 -3 120 -5 185 -38z m-2708 -3 l26 -26 3 -433 c2 -237
0 -451 -3 -475 -7 -50 -53 -108 -102 -128 -37 -16 -150 -18 -186 -5 -42 16
-67 51 -67 94 0 54 13 73 66 93 30 11 49 26 55 41 5 14 9 193 9 399 0 418 2
432 62 459 46 21 105 13 137 -19z m4287 19 c62 -25 64 -42 64 -421 0 -365 -3
-389 -56 -413 -37 -17 -106 -13 -130 7 -43 34 -44 47 -44 407 0 383 2 394 63
420 41 18 60 18 103 0z m842 -20 c121 -66 192 -211 192 -395 0 -254 -127 -425
-327 -438 -94 -6 -128 1 -196 42 l-57 35 0 -110 c0 -161 -27 -209 -118 -209
-54 0 -77 12 -97 50 -22 43 -23 946 0 990 21 41 53 60 101 60 51 0 90 -28 99
-71 l7 -31 32 29 c77 71 114 84 226 80 71 -2 94 -8 138 -32z m894 -3 c128 -63
196 -173 206 -329 4 -77 3 -83 -21 -107 l-26 -26 -261 0 c-143 0 -260 -2 -260
-5 0 -2 7 -26 16 -52 23 -69 66 -110 129 -124 66 -15 109 -2 171 52 58 50 107
54 156 10 28 -25 33 -36 33 -75 0 -37 -6 -51 -34 -80 -18 -19 -61 -47 -95 -63
-57 -26 -69 -28 -192 -28 l-130 0 -76 38 c-127 62 -197 162 -219 310 -34 229
80 433 280 499 43 14 80 17 157 15 90 -2 107 -6 166 -35z m-5251 8 c168 -52
302 -208 331 -383 25 -149 -30 -315 -139 -423 -30 -30 -59 -54 -64 -54 -5 0
-9 95 -9 213 0 247 -8 289 -70 359 -97 111 -274 118 -379 16 -72 -70 -75 -86
-81 -358 l-5 -245 -66 65 c-36 36 -78 89 -93 117 -83 164 -73 355 24 501 63
93 145 156 255 194 71 25 214 24 296 -2z m2310 -8 c27 -24 35 -44 66 -172 19
-80 45 -194 58 -255 13 -60 24 -101 24 -91 2 35 92 427 108 467 23 58 55 79
120 79 63 0 105 -18 121 -54 14 -30 98 -371 108 -436 11 -72 20 -77 27 -14 7
68 89 411 106 442 36 67 130 84 182 33 22 -23 29 -39 29 -70 0 -46 -160 -624
-191 -687 -23 -49 -52 -64 -122 -64 -64 0 -95 15 -120 57 -19 33 -127 440
-127 481 0 12 -4 22 -10 22 -5 0 -10 -12 -10 -27 0 -46 -99 -444 -118 -477
-25 -42 -56 -56 -128 -56 -73 0 -103 19 -128 79 -18 45 -170 579 -179 628 -21
113 101 189 184 115z m-2370 -315 c19 -12 44 -42 57 -67 21 -43 22 -52 22
-377 l0 -333 54 0 c50 0 78 -12 335 -140 294 -146 309 -157 328 -230 8 -30
-74 -622 -92 -665 -7 -16 -27 -43 -44 -60 l-32 -30 -417 -3 c-279 -2 -425 1
-442 8 -14 6 -152 137 -305 291 l-280 280 56 54 c31 30 69 57 84 61 23 6 362
-55 412 -73 10 -4 13 127 15 600 3 597 3 606 24 634 55 74 155 97 225 50z"/>
<path d="M7246 4810 c-73 -22 -116 -107 -116 -230 0 -133 44 -217 125 -240 91
-25 170 22 199 120 45 150 -10 321 -112 350 -43 11 -56 11 -96 0z"/>
<path d="M10531 4806 c-70 -25 -111 -113 -111 -236 0 -132 49 -218 134 -234
145 -27 239 139 195 344 -23 109 -117 163 -218 126z"/>
<path d="M11455 4816 c-44 -16 -84 -57 -102 -105 l-11 -31 169 0 c189 0 188
-1 148 70 -38 66 -124 95 -204 66z"/>
</g>
</svg>
