<?xml version="1.0" standalone="no"?>
<!DOCTYPE svg PUBLIC "-//W3C//DTD SVG 20010904//EN"
 "http://www.w3.org/TR/2001/REC-SVG-20010904/DTD/svg10.dtd">
<svg version="1.0" xmlns="http://www.w3.org/2000/svg"
 width="1667.000000pt" height="1667.000000pt" viewBox="0 0 1667.000000 1667.000000"
 preserveAspectRatio="xMidYMid meet">

<g transform="translate(0.000000,1667.000000) scale(0.100000,-0.100000)"
fill="#000000" stroke="none">
<path d="M5544 13451 c-12 -5 -31 -22 -44 -38 -18 -23 -21 -37 -17 -76 6 -70
40 -102 108 -102 45 0 54 4 80 33 62 69 24 178 -66 187 -22 3 -50 1 -61 -4z"/>
<path d="M6960 13437 c-14 -7 -33 -28 -43 -47 -16 -32 -17 -73 -15 -525 3
-533 3 -532 59 -561 62 -32 131 -7 150 55 l12 39 35 -35 c57 -58 113 -78 212
-77 106 0 159 24 229 100 140 153 145 473 11 643 -103 130 -318 159 -442 60
l-38 -30 0 125 c0 166 -12 221 -53 247 -37 22 -81 24 -117 6z m410 -496 c19
-10 48 -39 65 -66 26 -41 30 -58 33 -139 2 -50 -1 -110 -7 -133 -40 -149 -227
-181 -301 -52 -20 37 -25 61 -28 144 -4 110 7 168 40 210 42 54 133 71 198 36z"/>
<path d="M6240 13144 c-60 -8 -155 -45 -211 -84 -219 -150 -272 -465 -114
-679 36 -49 101 -111 116 -111 2 0 5 104 6 231 3 258 9 284 75 351 129 128
344 95 431 -67 21 -37 22 -56 25 -277 2 -131 7 -238 11 -238 15 0 129 126 149
165 76 150 71 338 -13 480 -91 155 -290 251 -475 229z"/>
<path d="M5525 13118 c-14 -13 -30 -41 -35 -63 -5 -22 -10 -207 -10 -412 0
-409 2 -397 -62 -410 -43 -9 -71 -50 -65 -96 7 -48 29 -74 76 -87 85 -23 192
0 235 51 13 15 29 51 35 79 14 67 15 841 1 892 -14 48 -43 68 -102 68 -34 0
-54 -6 -73 -22z"/>
<path d="M6271 12820 c-39 -9 -77 -35 -105 -74 -21 -27 -21 -41 -26 -630 l-5
-602 -175 37 c-96 21 -190 38 -208 38 -43 1 -78 -18 -129 -71 l-43 -44 283
-281 c166 -166 292 -284 307 -288 14 -3 210 -4 437 -3 l412 3 34 33 c20 20 40
51 46 75 6 23 29 171 50 329 42 297 42 319 6 375 -11 16 -111 71 -296 163
-266 133 -283 140 -340 140 l-59 0 0 349 c0 345 0 348 -23 381 -38 57 -103 84
-166 70z"/>
<path d="M0 4170 l0 -4170 8335 0 8335 0 0 4170 0 4170 -8335 0 -8335 0 0
-4170z m5661 1129 c38 -27 55 -84 39 -133 -29 -88 -147 -103 -207 -26 -19 23
-16 111 5 136 39 48 113 59 163 23z m4317 5 c30 -21 52 -66 52 -108 0 -26 -9
-44 -34 -70 -29 -31 -39 -36 -81 -36 -40 0 -52 5 -81 34 -50 50 -50 115 1 164
28 26 43 32 78 32 23 0 53 -7 65 -16z m-2899 -10 c41 -29 51 -72 51 -224 l0
-141 43 29 c64 44 109 55 201 50 99 -6 162 -34 225 -103 72 -78 111 -194 111
-330 -1 -210 -72 -346 -217 -412 -49 -22 -65 -25 -141 -21 -97 5 -136 20 -194
76 -34 32 -38 34 -38 15 0 -12 -12 -35 -26 -52 -23 -27 -32 -31 -78 -31 -58 0
-84 18 -107 75 -15 39 -13 998 3 1029 27 54 116 75 167 40z m1239 -288 c159
-43 228 -152 148 -232 -28 -28 -41 -34 -77 -34 -37 0 -47 5 -83 45 -32 34 -52
47 -91 56 -64 14 -128 -1 -151 -36 -15 -23 -15 -27 0 -49 16 -26 81 -54 187
-81 81 -21 175 -64 216 -99 46 -39 66 -99 62 -189 -5 -90 -35 -142 -107 -188
-69 -43 -132 -59 -241 -59 -206 0 -349 68 -381 180 -18 64 32 130 98 130 44 0
68 -13 123 -69 73 -76 188 -92 246 -35 56 57 11 101 -147 144 -216 59 -293
125 -294 253 -1 136 63 217 209 263 54 17 218 17 283 0z m-2639 -30 l26 -26 0
-468 c0 -521 4 -491 -70 -547 -38 -30 -130 -44 -198 -31 -51 10 -87 50 -87 98
0 55 13 74 65 94 25 9 50 25 55 35 6 10 10 176 10 399 0 424 2 438 62 465 46
21 105 13 137 -19z m4287 19 c62 -25 64 -42 64 -421 0 -365 -3 -389 -56 -413
-36 -16 -101 -14 -129 5 -42 27 -45 58 -45 416 0 376 2 387 63 413 41 18 60
18 103 0z m786 5 c95 -27 187 -125 223 -239 22 -69 31 -230 17 -298 -20 -91
-52 -161 -99 -213 -62 -69 -129 -102 -220 -108 -94 -6 -128 1 -196 42 l-57 35
0 -110 c0 -161 -27 -209 -118 -209 -54 0 -77 12 -97 50 -22 43 -23 946 0 990
21 41 53 60 101 60 51 0 90 -28 99 -71 l7 -31 32 29 c47 44 63 54 103 69 45
16 154 18 205 4z m950 -28 c128 -63 196 -173 206 -329 4 -77 3 -83 -21 -107
l-26 -26 -261 0 -260 0 6 -27 c20 -82 67 -135 137 -154 59 -16 103 -3 165 47
45 37 61 44 97 44 37 0 47 -5 75 -37 28 -32 32 -41 27 -77 -4 -33 -15 -50 -51
-83 -69 -62 -126 -78 -277 -78 -125 0 -125 0 -201 38 -126 62 -197 163 -219
311 -34 228 81 432 280 498 43 14 80 17 157 15 90 -2 107 -6 166 -35z m-5251
8 c153 -47 275 -176 323 -339 30 -102 12 -254 -41 -354 -26 -48 -135 -167
-153 -167 -5 0 -10 102 -13 228 -2 132 -9 242 -15 263 -18 53 -79 119 -136
145 -129 60 -281 8 -349 -120 -20 -38 -22 -59 -27 -286 l-5 -245 -66 65 c-36
36 -78 89 -93 117 -83 164 -73 355 24 501 63 93 145 156 255 194 71 25 214 24
296 -2z m2314 -10 c25 -26 35 -58 82 -257 29 -126 53 -239 54 -253 1 -20 2
-21 6 -5 2 11 25 112 49 224 25 112 52 221 61 242 23 58 55 79 120 79 63 0
105 -18 121 -54 14 -30 98 -371 108 -436 11 -72 20 -77 27 -14 7 68 89 411
106 442 36 67 130 84 182 33 22 -23 29 -39 29 -69 0 -45 -161 -625 -191 -688
-23 -49 -52 -64 -122 -64 -63 0 -95 15 -118 55 -19 32 -129 444 -129 483 0 12
-4 22 -10 22 -5 0 -10 -12 -10 -27 0 -46 -99 -444 -118 -477 -25 -42 -56 -56
-128 -56 -73 0 -103 19 -128 80 -14 36 -165 557 -180 623 -10 42 11 103 42
126 18 13 43 20 73 21 37 0 50 -5 74 -30z m-2385 -305 c16 -8 42 -32 57 -52
l28 -36 3 -349 3 -348 54 0 c49 0 78 -12 333 -139 299 -149 319 -164 329 -239
5 -38 -70 -594 -87 -648 -6 -17 -26 -46 -46 -65 l-35 -34 -419 -3 c-352 -2
-424 0 -447 12 -26 13 -565 547 -571 564 -5 14 104 111 133 118 23 6 363 -55
412 -73 10 -4 13 127 15 600 3 597 3 606 24 634 51 69 144 94 214 58z"/>
<path d="M7246 4810 c-81 -26 -122 -118 -114 -260 8 -136 52 -198 150 -214 58
-9 121 23 154 79 47 81 42 251 -9 326 -43 63 -114 90 -181 69z"/>
<path d="M10531 4806 c-70 -25 -111 -113 -111 -236 0 -132 49 -218 134 -234
145 -27 239 139 195 344 -23 109 -117 163 -218 126z"/>
<path d="M11457 4816 c-51 -19 -65 -32 -93 -88 l-24 -48 170 0 c150 0 170 2
170 16 0 28 -41 90 -70 107 -40 24 -108 30 -153 13z"/>
</g>
</svg>
