<?xml version="1.0" encoding="utf-8"?>
<!-- Generator: Adobe Illustrator 23.0.1, SVG Export Plug-In . SVG Version: 6.00 Build 0)  -->
<svg version="1.1" id="Layer_1" xmlns="http://www.w3.org/2000/svg" xmlns:xlink="http://www.w3.org/1999/xlink" x="0px" y="0px"
	 viewBox="0 0 800 800" style="enable-background:new 0 0 800 800;" xml:space="preserve">
<style type="text/css">
	.st0{fill:#FFFFFF;}
	.st1{fill:#29528F;}
	.st2{fill:#39B54A;}
</style>
<g>
	<g>
		<path class="st1" d="M259.11,369.34v30.47c0,4.32-0.38,7.23-1.15,8.71c-1.59,3.07-4.54,4.6-8.87,4.6c-4.87,0-7.31-1.72-7.31-5.17
			c0-1.86,0.79-3.15,2.38-3.86c0.17-0.05,0.74-0.23,1.73-0.53c0.99-0.3,1.59-0.73,1.81-1.27c0.22-0.55,0.33-2,0.33-4.35v-28.58
			c0-3.23,0.25-5.39,0.74-6.49c0.88-1.86,2.49-2.79,4.85-2.79c2.3,0,3.89,0.93,4.76,2.79C258.86,363.95,259.11,366.11,259.11,369.34
			z M253.44,345.03c1.42,0,2.67,0.53,3.74,1.6c1.07,1.07,1.6,2.34,1.6,3.82c0,1.53-0.53,2.83-1.6,3.9c-1.07,1.07-2.37,1.6-3.9,1.6
			c-1.48,0-2.75-0.53-3.82-1.6s-1.6-2.37-1.6-3.9c0-1.53,0.53-2.82,1.6-3.86C250.53,345.55,251.85,345.03,253.44,345.03z"/>
		<path class="st1" d="M327.03,354.39v9.77c2.74-3.12,6.24-4.68,10.51-4.68c5.26,0,9.46,1.93,12.61,5.79
			c3.15,3.86,4.72,9.02,4.72,15.48c0,6.3-1.51,11.35-4.52,15.15c-3.01,3.81-7.01,5.71-11.99,5.71c-4.87,0-8.79-2.02-11.75-6.08
			c-0.16,3.72-1.81,5.58-4.93,5.58c-3.78,0-5.67-2.76-5.67-8.3v-38.44c0-3.17,0.25-5.31,0.74-6.41c0.88-1.86,2.46-2.79,4.76-2.79
			s3.89,0.93,4.76,2.79C326.78,349.08,327.03,351.22,327.03,354.39z M335.16,368.68c-5.48,0-8.21,3.86-8.21,11.58
			c0,8.1,2.79,12.16,8.38,12.16c2.63,0,4.67-1,6.12-3c1.45-2,2.18-4.78,2.18-8.34c0-3.89-0.74-6.93-2.22-9.12
			C339.92,369.78,337.84,368.68,335.16,368.68z"/>
		<path class="st2" d="M377.46,385.44l-4.43-1.15c-4.49-1.15-7.71-2.66-9.65-4.52c-1.94-1.86-2.92-4.32-2.92-7.39
			c0-4.05,1.51-7.21,4.52-9.49c3.01-2.27,7.2-3.41,12.57-3.41c4.16,0,7.72,0.82,10.68,2.46c2.96,1.64,4.44,3.61,4.44,5.91
			c0,1.37-0.51,2.53-1.52,3.49c-1.01,0.96-2.23,1.44-3.66,1.44s-2.71-0.71-3.86-2.14c-0.77-0.93-1.27-1.52-1.52-1.77
			s-0.64-0.48-1.19-0.7c-1.1-0.49-2.44-0.74-4.02-0.74c-3.83,0-5.75,1.18-5.75,3.53c0,1.59,1.89,2.9,5.67,3.94l4.68,1.31
			c4,1.1,7.06,2.49,9.2,4.19c2.41,1.86,3.61,4.63,3.61,8.29c0,4.05-1.52,7.21-4.56,9.49c-3.04,2.27-7.24,3.41-12.61,3.41
			c-4.93,0-9.16-0.98-12.69-2.96c-3.53-1.97-5.3-4.35-5.3-7.15c0-1.26,0.5-2.38,1.52-3.37c1.01-0.99,2.18-1.48,3.49-1.48
			c1.97,0,3.8,1.26,5.5,3.78c1.37,2.03,3.83,3.04,7.39,3.04c3.83,0,5.75-1.31,5.75-3.94C382.79,387.74,381.01,386.37,377.46,385.44z
			"/>
		<path class="st2" d="M407.6,365.4l3.61,15.6c0.6,2.52,1.01,5.28,1.23,8.29c0.49-3.34,0.88-5.64,1.15-6.9l3.29-14.78
			c0.71-3.12,1.52-5.17,2.42-6.16c0.9-0.99,2.42-1.48,4.56-1.48c2.3,0,3.94,0.6,4.93,1.81c0.6,0.77,1.51,3.67,2.71,8.71l2.79,11.91
			c0.54,2.35,0.9,4.93,1.07,7.72c0.55-5.04,1.01-8.29,1.4-9.77l3.45-14.46c0.93-3.94,2.82-5.91,5.67-5.91c1.59,0,2.89,0.48,3.9,1.44
			c1.01,0.96,1.46,2.18,1.36,3.65c-0.05,1.04-0.25,2.14-0.57,3.29l-7.47,26.53c-0.71,2.52-1.51,4.19-2.38,5.01
			c-0.88,0.82-2.35,1.23-4.43,1.23c-2.3,0-3.97-0.55-5.01-1.64c-0.77-0.82-1.51-2.6-2.22-5.34l-3.53-13.8
			c-0.98-3.83-1.56-7.25-1.72-10.27c-0.16,3.34-0.66,6.76-1.48,10.27l-3.29,13.8c-0.66,2.79-1.48,4.65-2.46,5.58
			c-0.99,0.93-2.63,1.4-4.93,1.4c-1.97,0-3.45-0.41-4.44-1.23c-0.99-0.82-2-3.07-3.04-6.73l-6.65-23.57
			c-0.49-1.75-0.74-3.12-0.74-4.11c0-1.59,0.52-2.9,1.56-3.94c1.04-1.04,2.35-1.56,3.94-1.56C405,359.98,406.78,361.78,407.6,365.4z
			"/>
		<path class="st2" d="M460.9,345.03c1.48,0,2.75,0.55,3.82,1.64c1.07,1.1,1.6,2.38,1.6,3.86c0,1.53-0.53,2.83-1.6,3.9
			c-1.07,1.07-2.37,1.6-3.9,1.6c-1.53,0-2.83-0.55-3.9-1.64c-1.07-1.09-1.6-2.41-1.6-3.94c0-1.48,0.55-2.75,1.64-3.82
			C458.05,345.56,459.36,345.03,460.9,345.03z M455.31,391.84v-22.5c0-3.17,0.25-5.31,0.74-6.41c0.88-1.86,2.49-2.79,4.85-2.79
			c2.3,0,3.89,0.93,4.76,2.79c0.49,1.1,0.74,3.23,0.74,6.41v22.5c0,3.23-0.25,5.39-0.74,6.49c-0.88,1.86-2.46,2.79-4.76,2.79
			c-2.36,0-3.97-0.93-4.85-2.79C455.56,397.24,455.31,395.08,455.31,391.84z"/>
		<path class="st2" d="M485.04,396.94V404c0,3.23-0.25,5.37-0.74,6.41c-0.88,1.86-2.46,2.79-4.76,2.79c-2.3,0-3.89-0.93-4.76-2.79
			c-0.49-1.04-0.74-3.18-0.74-6.41v-35.73c0-5.53,1.89-8.29,5.67-8.29c3.12,0,4.76,1.86,4.93,5.58c2.96-4.05,6.87-6.08,11.74-6.08
			c4.98,0,8.98,1.9,11.99,5.71c3.01,3.81,4.52,8.86,4.52,15.15c0,6.46-1.57,11.62-4.72,15.48c-3.15,3.86-7.35,5.79-12.61,5.79
			C491.29,401.62,487.78,400.06,485.04,396.94z M493.42,368.68c-5.64,0-8.46,4.05-8.46,12.16c0,7.72,2.74,11.58,8.21,11.58
			c2.57,0,4.63-1.09,6.16-3.29c1.53-2.19,2.3-5.12,2.3-8.79C501.63,372.57,498.89,368.68,493.42,368.68z"/>
		<path class="st2" d="M551.32,383.88h-22.26c0.82,6.02,3.83,9.04,9.03,9.04c1.53,0,2.79-0.25,3.78-0.74
			c0.71-0.38,1.75-1.2,3.12-2.46c1.04-0.93,2.19-1.4,3.45-1.4c1.26,0,2.39,0.49,3.41,1.48c1.01,0.99,1.52,2.13,1.52,3.45
			c0,2.25-1.53,4.2-4.6,5.87c-3.07,1.67-6.63,2.5-10.68,2.5c-6.3,0-11.32-1.89-15.07-5.67c-3.75-3.78-5.63-8.84-5.63-15.19
			c0-6.24,1.92-11.35,5.75-15.32c3.83-3.97,8.76-5.96,14.78-5.96c5.47,0,9.92,1.79,13.35,5.38c3.42,3.59,5.13,8.25,5.13,14
			c0,1.86-0.38,3.16-1.15,3.9S553.18,383.88,551.32,383.88z M529.06,375.66h16.75c-0.82-4.98-3.53-7.47-8.13-7.47
			C533.31,368.19,530.43,370.68,529.06,375.66z"/>
	</g>
	<g>
		<path class="st1" d="M272.21,365.84c3.72-3.11,8.33-5.31,13.2-5.64c5.12-0.51,10.4,0.74,14.69,3.6c4.91,3.03,8.39,8.12,9.9,13.65
			c1.94,7.82-0.29,16.75-6.25,22.29c-1.01,1.04-2.17,1.91-3.32,2.77c-0.01-6.25-0.02-12.5,0-18.75c0.07-3.97-1.61-8.06-4.8-10.51
			c-2.04-1.71-4.65-2.63-7.28-2.84c-4.32-0.27-8.75,1.77-11.24,5.34c-1.69,2.3-2.45,5.19-2.42,8.02c0.02,6.28-0.07,12.55,0.05,18.83
			c-2.16-1.6-4.18-3.42-5.82-5.56c-3.25-4.36-4.77-9.91-4.44-15.32C264.71,375.65,267.77,369.9,272.21,365.84z"/>
		<path class="st1" d="M281.96,377.98c2.04-2.37,5.65-3.06,8.5-1.88c2.8,1.15,4.85,4.03,4.81,7.09c0.01,10.32,0.02,20.65-0.01,30.97
			c1.53-0.02,3.07-0.07,4.6,0.03c1.52,0.11,2.86,0.9,4.19,1.57c7.2,3.57,14.4,7.15,21.6,10.74c2.82,1.32,4.66,4.48,4.33,7.59
			c-1.16,8.03-2.27,16.06-3.4,24.09c-0.29,1.72-0.37,3.49-0.99,5.13c-0.99,2.85-3.88,4.92-6.91,4.87c-11.28,0.04-22.56,0-33.84,0.02
			c-1.3-0.01-2.64,0.01-3.86-0.51c-1.62-0.61-2.86-1.86-4.05-3.07c-8.04-8.04-16.09-16.07-24.09-24.15c1.22-1.19,2.41-2.4,3.58-3.64
			c1.39-1.57,3.65-2.53,5.72-1.95c5.9,1.19,11.79,2.45,17.69,3.66c0.02-18.36,0-36.72,0.01-55.07
			C279.8,381.44,280.52,379.41,281.96,377.98z"/>
	</g>
</g>
</svg>
