<svg id="Layer_1" data-name="Layer 1" xmlns="http://www.w3.org/2000/svg" viewBox="0 0 400 230"><defs><style>.cls-1{fill:#29528f;}.cls-2{fill:#fff;}</style></defs><rect class="cls-1" width="400" height="230"/><path class="cls-2" d="M536.28,354.17v30.47c0,4.33-.39,7.23-1.15,8.71q-2.39,4.61-8.87,4.6-7.32,0-7.31-5.17a3.86,3.86,0,0,1,2.38-3.86l1.72-.54a2.58,2.58,0,0,0,1.81-1.27,16.26,16.26,0,0,0,.33-4.35V354.17q0-4.85.74-6.48a5.52,5.52,0,0,1,9.61,0Q536.28,349.32,536.28,354.17Zm-5.67-24.31a5.14,5.14,0,0,1,3.74,1.61,5.22,5.22,0,0,1,1.6,3.81,5.46,5.46,0,0,1-5.51,5.51,5.22,5.22,0,0,1-3.81-1.6,5.32,5.32,0,0,1-1.61-3.91,5.19,5.19,0,0,1,1.61-3.86A5.46,5.46,0,0,1,530.61,329.86Z" transform="translate(-469 -262)"/><path class="cls-2" d="M604.19,339.23V349a13.38,13.38,0,0,1,10.52-4.68,15.42,15.42,0,0,1,12.6,5.79Q632,355.9,632,365.59q0,9.45-4.52,15.15a14.52,14.52,0,0,1-12,5.71,13.84,13.84,0,0,1-11.75-6.08q-.24,5.6-4.92,5.59-5.67,0-5.67-8.3V339.23c0-3.18.25-5.31.74-6.41a5.46,5.46,0,0,1,9.53,0C604,333.92,604.19,336.05,604.19,339.23Zm8.14,14.29q-8.22,0-8.22,11.58,0,12.15,8.38,12.15a7.12,7.12,0,0,0,6.12-3q2.17-3,2.17-8.33c0-3.89-.73-6.93-2.21-9.12A7.1,7.1,0,0,0,612.33,353.52Z" transform="translate(-469 -262)"/><path class="cls-2" d="M654.62,370.27l-4.43-1.15q-6.74-1.72-9.65-4.52a9.73,9.73,0,0,1-2.92-7.39,11.2,11.2,0,0,1,4.52-9.48q4.51-3.41,12.56-3.41a21.73,21.73,0,0,1,10.68,2.46q4.44,2.48,4.44,5.92a4.64,4.64,0,0,1-1.52,3.49,5.13,5.13,0,0,1-3.66,1.43,5,5,0,0,1-3.86-2.13c-.77-.93-1.27-1.52-1.52-1.77a3.61,3.61,0,0,0-1.19-.7,9.82,9.82,0,0,0-4-.74c-3.84,0-5.75,1.18-5.75,3.54q0,2.39,5.66,3.94l4.69,1.31a25.94,25.94,0,0,1,9.19,4.19q3.61,2.79,3.62,8.3A11.16,11.16,0,0,1,666.9,383q-4.56,3.42-12.61,3.41a25.6,25.6,0,0,1-12.69-3q-5.29-3-5.29-7.14a4.57,4.57,0,0,1,1.52-3.37,4.87,4.87,0,0,1,3.49-1.48q3,0,5.5,3.78,2.05,3,7.39,3,5.74,0,5.75-3.94Q660,371.67,654.62,370.27Z" transform="translate(-469 -262)"/><path class="cls-2" d="M684.76,350.23l3.62,15.61a52.29,52.29,0,0,1,1.23,8.29q.74-5,1.15-6.9L694,352.45q1.07-4.68,2.43-6.16t4.55-1.48c2.3,0,4,.6,4.93,1.81.6.77,1.51,3.67,2.71,8.7l2.8,11.91a46.56,46.56,0,0,1,1.06,7.72,89.92,89.92,0,0,1,1.4-9.77l3.45-14.46q1.39-5.91,5.67-5.91a5.46,5.46,0,0,1,3.9,1.44,4.34,4.34,0,0,1,1.35,3.65,14.48,14.48,0,0,1-.57,3.29l-7.48,26.53q-1.07,3.78-2.38,5c-.87.82-2.35,1.23-4.43,1.23q-3.45,0-5-1.64c-.77-.83-1.51-2.6-2.22-5.34l-3.53-13.8a53.52,53.52,0,0,1-1.73-10.27,56.15,56.15,0,0,1-1.48,10.27L696.18,379q-1,4.18-2.46,5.58t-4.93,1.4a6.84,6.84,0,0,1-4.44-1.23c-1-.82-2-3.07-3-6.74l-6.65-23.57a16.42,16.42,0,0,1-.74-4.11,5.34,5.34,0,0,1,5.5-5.5Q683.53,344.81,684.76,350.23Z" transform="translate(-469 -262)"/><path class="cls-2" d="M738.07,329.86a5.12,5.12,0,0,1,3.81,1.65,5.48,5.48,0,0,1-3.9,9.36,5.27,5.27,0,0,1-3.9-1.64,5.45,5.45,0,0,1-1.6-4,5.15,5.15,0,0,1,1.64-3.81A5.46,5.46,0,0,1,738.07,329.86Zm-5.59,46.82V354.17c0-3.17.25-5.31.74-6.4a4.86,4.86,0,0,1,4.85-2.79,4.81,4.81,0,0,1,4.76,2.79c.49,1.09.74,3.23.74,6.4v22.51q0,4.85-.74,6.49a4.81,4.81,0,0,1-4.76,2.79,4.86,4.86,0,0,1-4.85-2.79Q732.49,381.52,732.48,376.68Z" transform="translate(-469 -262)"/><path class="cls-2" d="M762.21,381.77v7.06q0,4.85-.74,6.41a5.46,5.46,0,0,1-9.53,0q-.74-1.56-.74-6.41V353.11q0-8.3,5.67-8.3,4.68,0,4.93,5.59a13.83,13.83,0,0,1,11.74-6.08,14.5,14.5,0,0,1,12,5.71q4.53,5.7,4.52,15.15,0,9.69-4.72,15.48a15.44,15.44,0,0,1-12.61,5.79A13.36,13.36,0,0,1,762.21,381.77Zm8.38-28.25q-8.46,0-8.46,12.15,0,11.58,8.21,11.58A7.16,7.16,0,0,0,776.5,374a15.08,15.08,0,0,0,2.3-8.79Q778.8,353.53,770.59,353.52Z" transform="translate(-469 -262)"/><path class="cls-2" d="M828.49,368.71H806.23q1.23,9,9,9A8.43,8.43,0,0,0,819,377a18.26,18.26,0,0,0,3.12-2.47,5.05,5.05,0,0,1,3.45-1.39,4.78,4.78,0,0,1,3.41,1.47,4.69,4.69,0,0,1,1.52,3.45q0,3.38-4.6,5.88a21.93,21.93,0,0,1-10.67,2.5q-9.45,0-15.08-5.67t-5.62-15.19q0-9.36,5.75-15.32a19.63,19.63,0,0,1,14.78-5.95,17.6,17.6,0,0,1,13.35,5.38q5.13,5.37,5.13,14c0,1.86-.38,3.16-1.15,3.9A5.61,5.61,0,0,1,828.49,368.71Zm-22.26-8.21H823q-1.25-7.47-8.13-7.48Q808.28,353,806.23,360.5Z" transform="translate(-469 -262)"/><path class="cls-2" d="M549.37,350.67a23.38,23.38,0,0,1,13.2-5.63,22.72,22.72,0,0,1,14.7,3.59,23.28,23.28,0,0,1,9.9,13.65c1.94,7.82-.29,16.75-6.26,22.29a25.93,25.93,0,0,1-3.32,2.77q0-9.37,0-18.75a13.08,13.08,0,0,0-4.8-10.51,12.85,12.85,0,0,0-18.53,2.5,13.33,13.33,0,0,0-2.41,8c0,6.27-.08,12.55,0,18.82a29.5,29.5,0,0,1-5.83-5.55,23.42,23.42,0,0,1,3.29-31.2Z" transform="translate(-469 -262)"/><path class="cls-2" d="M559.13,362.81a7.62,7.62,0,0,1,8.5-1.88,7.79,7.79,0,0,1,4.81,7.08q0,15.5,0,31c1.54,0,3.07-.08,4.6,0a11.23,11.23,0,0,1,4.19,1.57q10.81,5.34,21.6,10.74a7.7,7.7,0,0,1,4.33,7.59q-1.74,12-3.4,24.09a26.15,26.15,0,0,1-1,5.13,7.37,7.37,0,0,1-6.91,4.87c-11.28,0-22.56,0-33.84,0a10.05,10.05,0,0,1-3.86-.51,12.06,12.06,0,0,1-4-3.07Q542,437.38,530,425.29c1.22-1.18,2.41-2.4,3.58-3.64a5.81,5.81,0,0,1,5.72-1.95c5.9,1.19,11.79,2.45,17.68,3.66,0-18.36,0-36.72,0-55.07A7.53,7.53,0,0,1,559.13,362.81Z" transform="translate(-469 -262)"/></svg>